<svg xmlns="http://www.w3.org/2000/svg" width="360" height="200" viewBox="0 0 360 200"><rect width="100%" height="100%" fill="#DDDDDD"/><path fill="#999999" d="M81.945 90.725h2.49v15.18h-1.45q-.34 0-.56-.11-.23-.11-.44-.37l-7.93-10.13q.07.7.07 1.29v9.32h-2.49v-15.18h1.48q.18 0 .31.01.13.02.23.07.1.04.19.13.1.09.21.24l7.96 10.16q-.03-.37-.05-.72-.02-.36-.02-.66zm10.23 4.24q1.19 0 2.18.39.98.39 1.68 1.1.69.71 1.07 1.74t.38 2.3q0 1.28-.38 2.31t-1.07 1.76q-.7.72-1.68 1.11-.99.39-2.18.39-1.21 0-2.2-.39-.98-.39-1.68-1.11-.7-.73-1.08-1.76-.39-1.03-.39-2.31 0-1.27.39-2.3.38-1.03 1.08-1.74t1.68-1.1q.99-.39 2.2-.39m0 9.1q1.34 0 1.99-.9.64-.9.64-2.65 0-1.74-.64-2.65-.65-.92-1.99-.92-1.37 0-2.02.92-.66.92-.66 2.65 0 1.74.66 2.64.65.91 2.02.91m16-3.89h4.83l-1.85-5.05q-.14-.34-.28-.8-.15-.46-.3-1-.13.54-.28 1-.15.47-.28.82zm3.85-9.45 5.97 15.18h-2.19q-.36 0-.6-.18-.23-.19-.34-.46l-1.14-3.1h-6.29l-1.13 3.1q-.08.24-.33.44-.24.2-.59.2h-2.21l5.98-15.18zm15.53 5.74-.68.95q-.12.14-.23.23-.11.08-.32.08-.2 0-.38-.12-.19-.12-.46-.27-.26-.16-.62-.28t-.9-.12q-.68 0-1.2.25-.51.25-.85.71t-.51 1.12q-.17.65-.17 1.48 0 .86.18 1.54.19.67.54 1.12.34.46.84.7.49.23 1.11.23t1-.15.65-.33q.26-.19.45-.34.2-.15.44-.15.31 0 .47.24l.75.94q-.43.51-.94.85-.5.34-1.04.54-.54.21-1.12.29-.57.09-1.13.09-1 0-1.88-.38-.89-.37-1.55-1.08-.66-.72-1.04-1.75-.39-1.03-.39-2.36 0-1.18.35-2.2.34-1.01 1-1.75t1.64-1.16q.97-.42 2.24-.42 1.21 0 2.12.39t1.63 1.11m4.32-6.16v5.98q.63-.59 1.38-.95.76-.37 1.78-.37.88 0 1.56.3.69.3 1.14.84.46.54.69 1.29.24.75.24 1.65v6.86h-2.59v-6.86q0-.98-.45-1.52-.46-.55-1.38-.55-.67 0-1.26.31-.59.3-1.11.83v7.79h-2.6v-15.6zm9.33 4.83h2.61v10.77h-2.61zm2.96-3.14q0 .33-.13.63-.14.29-.37.51-.22.22-.53.35-.3.13-.65.13-.33 0-.63-.13t-.52-.35-.35-.51q-.13-.3-.13-.63 0-.35.13-.65.13-.31.35-.53t.52-.35.63-.13q.35 0 .65.13.31.13.53.35.23.22.37.53.13.3.13.65m4.34 7.28h4.89q0-.5-.14-.95-.14-.44-.42-.78-.29-.33-.72-.53-.44-.19-1.02-.19-1.12 0-1.77.64-.64.64-.82 1.81m6.61 1.57h-6.66q.06.83.29 1.43.23.61.61 1t.9.59q.52.19 1.15.19t1.08-.15q.46-.14.8-.32t.6-.33q.26-.14.5-.14.33 0 .48.24l.75.94q-.43.51-.97.85-.53.34-1.12.54-.58.21-1.18.29-.61.09-1.17.09-1.13 0-2.09-.38-.97-.37-1.68-1.1-.72-.73-1.13-1.8-.41-1.08-.41-2.5 0-1.1.36-2.07t1.02-1.69q.67-.72 1.63-1.14t2.17-.42q1.02 0 1.88.32.86.33 1.48.95.62.63.97 1.54t.35 2.07q0 .59-.12.79-.13.21-.49.21m10.22-5.71h2.05l-4.27 10.77h-2.36l-4.27-10.77h2.14q.3 0 .49.13.19.14.26.35l2.08 5.75q.16.51.29.99t.22.97q.11-.49.23-.97.13-.48.31-.99l2.12-5.75q.07-.21.26-.35.19-.13.45-.13m5.47 4.14h4.89q0-.5-.14-.95-.14-.44-.42-.78-.29-.33-.72-.53-.44-.19-1.01-.19-1.13 0-1.77.64-.65.64-.83 1.81m6.62 1.57h-6.67q.06.83.29 1.43.23.61.61 1t.9.59q.52.19 1.15.19t1.09-.15q.45-.14.79-.32.35-.18.6-.33.26-.14.5-.14.33 0 .48.24l.75.94q-.43.51-.97.85-.53.34-1.11.54-.59.21-1.19.29-.6.09-1.17.09-1.12 0-2.09-.38-.97-.37-1.68-1.1t-1.12-1.8q-.41-1.08-.41-2.5 0-1.1.35-2.07.36-.97 1.03-1.69.66-.72 1.62-1.14.97-.42 2.17-.42 1.02 0 1.88.32.86.33 1.48.95.62.63.97 1.54.36.91.36 2.07 0 .59-.13.79-.13.21-.48.21m5.14 5.06h-2.59v-10.77h1.58q.51 0 .67.47l.16.8q.29-.32.6-.58t.66-.45.75-.3q.41-.11.89-.11 1.02 0 1.68.55.65.55.98 1.46.25-.53.63-.91.38-.39.83-.63t.96-.36q.51-.11 1.02-.11.89 0 1.59.27.69.27 1.16.8.48.52.72 1.28.25.76.25 1.73v6.86h-2.59v-6.86q0-1.03-.46-1.55-.45-.52-1.32-.52-.4 0-.74.14t-.6.4q-.26.25-.4.64-.15.39-.15.89v6.86h-2.6v-6.86q0-1.08-.44-1.57-.43-.5-1.27-.5-.57 0-1.06.28t-.91.76zm17.04-6.63h4.9q0-.5-.15-.95-.14-.44-.42-.78-.28-.33-.72-.53-.44-.19-1.01-.19-1.13 0-1.77.64-.65.64-.83 1.81m6.62 1.57h-6.67q.06.83.29 1.43.24.61.61 1 .38.39.9.59.52.19 1.15.19t1.09-.15q.45-.14.8-.32.34-.18.59-.33.26-.14.5-.14.33 0 .49.24l.74.94q-.43.51-.96.85-.54.34-1.12.54-.59.21-1.19.29-.6.09-1.17.09-1.12 0-2.09-.38-.97-.37-1.68-1.1t-1.12-1.8q-.41-1.08-.41-2.5 0-1.1.35-2.07.36-.97 1.03-1.69t1.63-1.14 2.16-.42q1.02 0 1.88.32.86.33 1.48.95.62.63.98 1.54.35.91.35 2.07 0 .59-.13.79-.12.21-.48.21m4.8-5.24.18.85q.32-.33.68-.6.37-.28.77-.48.4-.19.87-.3.46-.11 1-.11.89 0 1.57.3t1.14.84q.45.54.69 1.29t.24 1.65v6.86h-2.6v-6.86q0-.98-.45-1.52-.45-.55-1.37-.55-.68 0-1.26.31-.59.3-1.12.83v7.79h-2.59v-10.77h1.59q.5 0 .66.47m13.18 10.47q-1.4 0-2.15-.79-.75-.8-.75-2.19v-6.02h-1.11q-.21 0-.35-.14-.15-.13-.15-.41v-1.03l1.73-.28.55-2.94q.05-.21.2-.32.14-.12.38-.12h1.34v3.39h2.88v1.85h-2.88v5.84q0 .5.25.78.24.29.67.29.25 0 .41-.06t.28-.12.22-.12q.09-.06.19-.06.11 0 .18.06.08.06.16.17l.78 1.26q-.57.47-1.3.72-.74.24-1.53.24m12.57-15.35v15.18h-2.83v-15.18zm5.58 15.18h-2.59v-10.77h1.58q.5 0 .66.47l.17.8q.28-.32.59-.58t.67-.45q.35-.19.75-.3.41-.11.89-.11 1.02 0 1.67.55.66.55.98 1.46.26-.53.63-.91.38-.39.83-.63.46-.24.97-.36.5-.11 1.02-.11.89 0 1.58.27.7.27 1.17.8.47.52.72 1.28t.25 1.73v6.86h-2.6v-6.86q0-1.03-.45-1.55t-1.32-.52q-.4 0-.74.14t-.6.4q-.26.25-.41.64-.14.39-.14.89v6.86h-2.61v-6.86q0-1.08-.43-1.57-.44-.5-1.28-.5-.56 0-1.05.28t-.91.76zm20.68-2.78v-1.82q-1.12.05-1.89.2-.76.14-1.22.36-.47.22-.67.51-.2.3-.2.64 0 .68.41.98.4.29 1.05.29.8 0 1.38-.29.59-.28 1.14-.87m-5.48-5.66-.46-.83q1.86-1.7 4.47-1.7.95 0 1.69.31.75.31 1.26.86.52.55.79 1.32.26.76.26 1.68v6.8h-1.17q-.37 0-.57-.11t-.31-.45l-.23-.77q-.41.36-.8.64t-.81.47-.9.29-1.05.1q-.69 0-1.26-.19-.58-.18-1-.55-.42-.36-.65-.91t-.23-1.27q0-.41.13-.81.14-.41.45-.78.31-.36.8-.69.5-.33 1.21-.57.72-.24 1.68-.39t2.18-.18v-.63q0-1.09-.46-1.61t-1.33-.52q-.63 0-1.05.15-.41.15-.73.33-.31.19-.57.33-.26.15-.57.15-.27 0-.46-.14t-.31-.33m14.39 2.79q.48 0 .84-.13.35-.13.59-.36t.36-.56q.12-.32.12-.71 0-.8-.48-1.27t-1.43-.47q-.96 0-1.44.47-.47.47-.47 1.27 0 .37.12.7t.35.56q.24.24.6.37.37.13.84.13m2.93 6.13q0-.31-.19-.51t-.52-.31q-.32-.11-.76-.16-.43-.06-.92-.08-.49-.03-1.01-.05t-1.01-.08q-.43.24-.7.56-.27.33-.27.76 0 .28.14.53t.45.42q.31.18.81.28.49.1 1.21.1t1.24-.11q.53-.11.87-.3.34-.2.5-.46.16-.27.16-.59m-.52-10.89h3.1v.97q0 .46-.56.57l-.96.18q.22.55.22 1.21 0 .8-.32 1.45-.32.64-.89 1.09-.57.46-1.34.7-.77.25-1.66.25-.32 0-.61-.03-.3-.03-.58-.09-.5.31-.5.69 0 .32.3.47.3.16.79.22t1.12.08q.63.01 1.29.07.67.05 1.3.18t1.12.42q.49.28.79.77t.3 1.25q0 .72-.35 1.39t-1.02 1.2q-.67.52-1.64.84t-2.21.32q-1.22 0-2.12-.24-.9-.23-1.5-.63-.6-.39-.89-.9-.3-.52-.3-1.07 0-.76.46-1.27t1.26-.81q-.44-.22-.69-.59t-.25-.97q0-.24.09-.5.09-.25.26-.51.18-.25.44-.47.26-.23.62-.41-.82-.44-1.29-1.17-.47-.74-.47-1.73 0-.79.32-1.44t.9-1.1q.57-.46 1.35-.7t1.71-.24q.69 0 1.3.14t1.11.41m6.79 3.78h4.89q0-.5-.14-.95-.14-.44-.43-.78-.28-.33-.72-.53-.43-.19-1.01-.19-1.12 0-1.77.64t-.82 1.81m6.61 1.57h-6.67q.07.83.3 1.43.23.61.61 1 .37.39.89.59.52.19 1.15.19t1.09-.15q.46-.14.8-.32t.6-.33q.25-.14.5-.14.32 0 .48.24l.74.94q-.43.51-.96.85-.54.34-1.12.54-.58.21-1.19.29-.6.09-1.17.09-1.12 0-2.09-.38-.96-.37-1.68-1.1-.71-.73-1.12-1.8-.41-1.08-.41-2.5 0-1.1.36-2.07.35-.97 1.02-1.69t1.63-1.14 2.17-.42q1.02 0 1.88.32.86.33 1.48.95.62.63.97 1.54t.35 2.07q0 .59-.13.79-.12.21-.48.21"/></svg>