<svg xmlns="http://www.w3.org/2000/svg" width="40" height="40" viewBox="0 0 40 40"><rect width="100%" height="100%" fill="#DDDDDD"/><path fill="#999999" d="M11.64 17.445h.83v5.06h-.48q-.11 0-.19-.04-.07-.03-.14-.12l-2.65-3.38q.03.24.03.43v3.11h-.83v-5.06h.59q.05.01.08.03.03.01.06.04.04.03.07.08l2.66 3.39-.02-.24q-.01-.12-.01-.22zm3.41 1.41q.4 0 .73.13t.56.37.36.58q.12.34.12.77 0 .42-.12.77-.13.34-.36.58t-.56.37-.73.13-.73-.13-.56-.37-.36-.58q-.13-.35-.13-.77 0-.43.13-.77t.36-.58.56-.37.73-.13m0 3.04q.45 0 .67-.3.21-.3.21-.89 0-.58-.21-.88-.22-.31-.67-.31t-.67.31-.22.88q0 .58.22.88.22.31.67.31m5.22-4.45v5.06h-.95v-5.06zm3.79 1.91-.23.32q-.03.05-.07.08-.04.02-.11.02-.06 0-.13-.04-.06-.04-.15-.09t-.21-.09-.3-.04q-.22 0-.39.08-.18.09-.29.24t-.17.37-.06.5.07.51q.06.22.17.37.12.16.28.24.17.07.37.07.21 0 .34-.05t.21-.11q.09-.06.15-.11.07-.05.15-.05.11 0 .16.08l.25.31q-.15.17-.32.29-.16.11-.34.18t-.37.09q-.2.03-.38.03-.34 0-.63-.12-.29-.13-.52-.36-.22-.24-.34-.59-.13-.34-.13-.78 0-.4.11-.74.12-.33.34-.58t.54-.39q.33-.14.75-.14.4 0 .71.13.3.13.54.37m2.16-.5q.4 0 .73.13t.56.37.36.58.13.77q0 .42-.13.77-.13.34-.36.58t-.56.37-.73.13-.73-.13-.56-.37-.36-.58q-.13-.35-.13-.77 0-.43.13-.77t.36-.58.56-.37.73-.13m0 3.04q.45 0 .67-.3.21-.3.21-.89 0-.58-.21-.88-.22-.31-.67-.31t-.67.31-.22.88q0 .58.22.88.22.31.67.31m3.19-2.82.06.28q.1-.11.22-.2.13-.09.26-.16.13-.06.29-.1.15-.04.33-.04.3 0 .53.1.22.1.38.28.15.18.23.43t.08.55v2.29h-.87v-2.29q0-.32-.15-.5-.15-.19-.46-.19-.22 0-.42.11-.19.1-.37.27v2.6h-.86v-3.59h.53q.16 0 .22.16"/></svg>