<svg xmlns="http://www.w3.org/2000/svg" width="360" height="200" viewBox="0 0 360 200"><rect width="100%" height="100%" fill="#DDDDDD"/><path fill="#999999" d="M87.2 85.995h3.67v22.41h-2.13q-.5 0-.83-.16-.34-.17-.65-.55l-11.7-14.94q.09 1.02.09 1.89v13.76h-3.67v-22.41h2.19q.26 0 .45.02.2.02.34.09.15.07.29.2.14.14.31.35l11.75 15.01q-.05-.55-.08-1.07-.03-.53-.03-.98zm15.1 6.26q1.77 0 3.21.57 1.45.58 2.48 1.63 1.04 1.05 1.59 2.57.56 1.52.56 3.4 0 1.89-.56 3.41-.55 1.52-1.59 2.59-1.03 1.07-2.48 1.64-1.44.57-3.21.57-1.78 0-3.24-.57t-2.49-1.64-1.6-2.59q-.56-1.52-.56-3.41 0-1.88.56-3.4.57-1.52 1.6-2.57t2.49-1.63q1.46-.57 3.24-.57m0 13.44q1.98 0 2.94-1.34.95-1.33.95-3.9t-.95-3.92q-.96-1.35-2.94-1.35-2.02 0-2.99 1.35-.96 1.36-.96 3.92t.96 3.9q.97 1.34 2.99 1.34m34.13-19.7h3.67v22.41h-2.14q-.49 0-.83-.16-.33-.17-.64-.55l-11.7-14.94q.09 1.02.09 1.89v13.76h-3.67v-22.41h2.18q.27 0 .46.02t.34.09.29.2q.14.14.31.35l11.75 15.01q-.05-.55-.08-1.07-.03-.53-.03-.98zm11.08 12.63h7.22q0-.74-.2-1.4-.21-.66-.63-1.16-.42-.49-1.06-.78-.65-.29-1.5-.29-1.66 0-2.61.95-.95.94-1.22 2.68m9.77 2.31h-9.85q.1 1.22.44 2.11.34.9.9 1.48t1.32.87q.77.28 1.7.28t1.6-.21q.68-.22 1.18-.49.51-.26.89-.48.38-.21.73-.21.48 0 .71.35l1.11 1.4q-.64.74-1.43 1.25-.79.5-1.65.8t-1.75.43q-.89.12-1.73.12-1.66 0-3.09-.55-1.42-.55-2.48-1.63-1.05-1.07-1.65-2.66-.61-1.59-.61-3.68 0-1.63.53-3.06.53-1.44 1.51-2.5t2.4-1.68 3.2-.62q1.51 0 2.78.48t2.18 1.4q.92.92 1.44 2.27.52 1.34.52 3.06 0 .86-.19 1.17-.19.3-.71.3m23.56-8.43h2.91l-5.05 15.9h-3.07q-.53 0-.73-.68l-2.85-9.19q-.14-.47-.26-.93-.11-.45-.19-.92-.09.47-.21.94t-.26.94l-2.89 9.16q-.19.68-.83.68h-2.94l-5.04-15.9h3.05q.42 0 .72.2.29.2.39.51l2.27 8.49q.17.7.31 1.37.13.66.22 1.33.17-.67.36-1.33.2-.67.42-1.37l2.63-8.52q.09-.31.36-.51.28-.2.66-.2h1.69q.41 0 .69.2.29.2.38.51l2.56 8.52q.2.7.38 1.38.18.67.35 1.34.2-1.32.57-2.72l2.34-8.49q.11-.31.39-.51t.67-.2m15.65 1.72-.87 1.38q-.15.25-.32.35t-.44.1-.59-.16q-.32-.15-.74-.35-.42-.19-.95-.35-.54-.15-1.27-.15-1.13 0-1.77.48t-.64 1.25q0 .52.33.87.33.34.88.61.55.26 1.25.47t1.42.46 1.42.56q.7.32 1.25.81t.88 1.17.33 1.64q0 1.15-.41 2.12t-1.22 1.67q-.8.71-1.99 1.1-1.18.4-2.73.4-.82 0-1.61-.15-.78-.15-1.5-.41t-1.33-.62q-.62-.36-1.08-.78l.88-1.45q.17-.27.41-.4.23-.14.58-.14.36 0 .68.2t.74.43q.41.23.98.44.57.2 1.43.2.69 0 1.17-.17.49-.16.81-.42.32-.27.46-.61.15-.35.15-.73 0-.55-.33-.91t-.89-.62q-.55-.26-1.25-.47-.71-.21-1.44-.46-.74-.25-1.44-.58-.71-.33-1.26-.85-.55-.51-.88-1.25-.34-.75-.34-1.8 0-.98.39-1.86t1.14-1.54 1.88-1.06q1.12-.39 2.59-.39 1.65 0 2.99.54 1.35.54 2.25 1.43m15.38-8.23v22.41h-4.19v-22.41zm8.23 22.41h-3.83v-15.9h2.34q.74 0 .98.69l.24 1.18q.42-.46.88-.85t.98-.67 1.11-.44q.6-.16 1.31-.16 1.51 0 2.47.81.97.82 1.45 2.16.38-.79.93-1.35.56-.57 1.23-.92.67-.36 1.42-.53t1.51-.17q1.32 0 2.34.4t1.72 1.18 1.06 1.89q.37 1.12.37 2.56v10.12h-3.83v-10.12q0-1.52-.67-2.29t-1.95-.77q-.59 0-1.1.21-.5.2-.88.58t-.6.95q-.21.57-.21 1.32v10.12h-3.85v-10.12q0-1.6-.64-2.33t-1.88-.73q-.84 0-1.56.42-.72.41-1.34 1.12zm30.53-4.11v-2.68q-1.66.08-2.79.29t-1.81.53q-.68.33-.98.76-.29.44-.29.95 0 1.01.6 1.44.59.43 1.55.43 1.18 0 2.04-.42.86-.43 1.68-1.3m-8.09-8.35-.68-1.23q2.74-2.51 6.6-2.51 1.4 0 2.5.46t1.86 1.27 1.15 1.95q.4 1.13.4 2.48v10.04h-1.74q-.54 0-.83-.16-.3-.17-.47-.66l-.34-1.15q-.6.54-1.18.95-.57.42-1.19.69-.62.28-1.33.43-.7.15-1.55.15-1.01 0-1.86-.27-.86-.27-1.48-.82-.62-.54-.96-1.35-.34-.8-.34-1.87 0-.61.2-1.2.2-.6.66-1.14t1.19-1.02q.73-.49 1.79-.84 1.06-.36 2.47-.58 1.41-.23 3.22-.27v-.93q0-1.6-.68-2.37t-1.97-.77q-.93 0-1.54.22t-1.08.49q-.46.27-.84.49t-.85.22q-.4 0-.68-.21t-.45-.49m21.24 4.12q.71 0 1.24-.19.52-.2.87-.54t.53-.82.18-1.05q0-1.18-.71-1.87-.7-.69-2.11-.69t-2.12.69q-.7.69-.7 1.87 0 .56.17 1.04.18.48.53.82.35.35.88.55.54.19 1.24.19m4.32 9.05q0-.46-.28-.76-.28-.29-.76-.45-.48-.17-1.12-.24-.64-.08-1.36-.12-.73-.04-1.49-.07-.77-.03-1.5-.12-.63.35-1.03.83-.39.48-.39 1.12 0 .42.2.78.21.37.67.63t1.19.41 1.78.15q1.07 0 1.84-.17.78-.16 1.28-.44.51-.29.74-.69.23-.39.23-.86m-.76-16.07h4.57v1.43q0 .68-.82.83l-1.42.27q.32.82.32 1.79 0 1.18-.47 2.14-.47.95-1.31 1.61-.84.67-1.98 1.04-1.14.36-2.45.36-.47 0-.9-.05-.44-.04-.85-.12-.75.45-.75 1.01 0 .48.44.7.45.23 1.17.32.73.09 1.66.12.93.02 1.91.1.98.07 1.91.27.93.19 1.65.61.73.42 1.17 1.14.45.72.45 1.85 0 1.06-.52 2.05t-1.51 1.77q-.98.77-2.42 1.24-1.43.48-3.26.48-1.8 0-3.13-.35t-2.22-.93q-.88-.58-1.31-1.34-.44-.76-.44-1.58 0-1.12.68-1.87.67-.75 1.85-1.2-.64-.33-1.01-.87t-.37-1.43q0-.35.13-.73t.39-.76q.26-.37.64-.7.39-.33.92-.6-1.21-.65-1.9-1.73-.69-1.09-.69-2.55 0-1.17.47-2.13.47-.95 1.32-1.62.84-.68 2-1.04 1.15-.35 2.52-.35 1.02 0 1.92.21t1.64.61m10.02 5.58h7.22q0-.74-.21-1.4t-.63-1.16q-.42-.49-1.06-.78t-1.5-.29q-1.65 0-2.61.95-.95.94-1.21 2.68m9.76 2.31h-9.84q.09 1.22.43 2.11.34.9.9 1.48t1.33.87q.76.28 1.69.28t1.61-.21q.67-.22 1.18-.49.5-.26.88-.48.38-.21.74-.21.48 0 .71.35l1.1 1.4q-.64.74-1.43 1.25-.79.5-1.65.8t-1.75.43q-.89.12-1.73.12-1.66 0-3.08-.55-1.43-.55-2.48-1.63-1.06-1.07-1.66-2.66-.61-1.59-.61-3.68 0-1.63.53-3.06.53-1.44 1.51-2.5.99-1.06 2.41-1.68 1.41-.62 3.2-.62 1.5 0 2.77.48t2.19 1.4q.91.92 1.43 2.27.52 1.34.52 3.06 0 .86-.19 1.17-.18.3-.71.3"/></svg>