<svg xmlns="http://www.w3.org/2000/svg" width="600" height="400" viewBox="0 0 600 400"><rect width="100%" height="100%" fill="#DDDDDD"/><path fill="#999999" d="M145.625 178.8h5.68v34.7h-3.31q-.77 0-1.28-.25-.52-.25-1-.85l-18.12-23.14q.15 1.58.15 2.93v21.31h-5.69v-34.7h3.38q.41 0 .71.03.3.04.53.15.23.1.44.31.22.2.48.54l18.19 23.23q-.07-.84-.12-1.66-.04-.81-.04-1.51zm23.37 9.69q2.74 0 4.98.89 2.25.89 3.84 2.52 1.6 1.63 2.46 3.98.87 2.36.87 5.26 0 2.93-.87 5.28-.86 2.35-2.46 4.01-1.59 1.65-3.84 2.54-2.24.89-4.98.89-2.76 0-5.01-.89-2.26-.89-3.86-2.54-1.59-1.66-2.47-4.01-.87-2.35-.87-5.28 0-2.9.87-5.26.88-2.35 2.47-3.98 1.6-1.63 3.86-2.52 2.25-.89 5.01-.89m0 20.81q3.07 0 4.55-2.06 1.48-2.07 1.48-6.05 0-3.99-1.48-6.07-1.48-2.09-4.55-2.09-3.12 0-4.62 2.1t-1.5 6.06 1.5 6.03q1.5 2.08 4.62 2.08m49.37-27.24-1.61 3.05q-.29.5-.61.73t-.8.23q-.51 0-1.1-.37-.58-.38-1.4-.83-.82-.46-1.91-.83t-2.58-.37q-1.34 0-2.35.32-1.01.33-1.69.9-.69.58-1.02 1.38-.34.81-.34 1.77 0 1.22.69 2.04.68.81 1.81 1.39 1.13.57 2.57 1.03t2.95.97q1.51.52 2.95 1.2 1.44.69 2.57 1.73t1.81 2.56q.68 1.51.68 3.67 0 2.35-.8 4.4t-2.35 3.58q-1.55 1.52-3.78 2.4-2.23.87-5.11.87-1.66 0-3.27-.32t-3.08-.92q-1.48-.6-2.77-1.44-1.3-.84-2.31-1.88l1.9-3.09q.24-.34.62-.57.39-.22.82-.22.6 0 1.29.49.7.49 1.66 1.09t2.24 1.09q1.29.49 3.09.49 2.76 0 4.27-1.3 1.51-1.31 1.51-3.76 0-1.37-.68-2.23-.69-.87-1.81-1.45-1.13-.59-2.57-1t-2.93-.89-2.93-1.15-2.57-1.75q-1.12-1.08-1.81-2.7-.68-1.62-.68-4 0-1.89.75-3.69.76-1.8 2.2-3.2 1.44-1.39 3.55-2.23t4.85-.84q3.07 0 5.66.96 2.6.96 4.42 2.69m24.5 9.86-1.56 2.16q-.26.34-.51.53t-.73.19q-.46 0-.89-.27-.43-.28-1.03-.63-.6-.34-1.43-.62t-2.05-.28q-1.56 0-2.74.57-1.18.56-1.96 1.62-.78 1.05-1.16 2.55t-.38 3.4q0 1.97.42 3.5.42 1.54 1.21 2.58.79 1.05 1.92 1.59t2.54.54q1.42 0 2.29-.35.88-.35 1.48-.77t1.04-.77q.45-.34 1-.34.72 0 1.08.55l1.7 2.16q-.98 1.15-2.13 1.93t-2.39 1.25-2.54.66q-1.31.19-2.61.19-2.28 0-4.29-.85-2.02-.85-3.53-2.49-1.51-1.63-2.39-3.99-.88-2.37-.88-5.39 0-2.71.78-5.03.78-2.31 2.3-4.01 1.51-1.69 3.74-2.65t5.14-.96q2.76 0 4.83.89 2.08.89 3.73 2.54m9.87-14.08v13.68q1.44-1.35 3.17-2.19 1.72-.84 4.05-.84 2.02 0 3.58.69 1.56.68 2.6 1.92 1.05 1.23 1.59 2.95.54 1.71.54 3.78v15.67h-5.93v-15.67q0-2.26-1.03-3.49-1.04-1.24-3.15-1.24-1.53 0-2.88.7-1.34.69-2.54 1.89v17.81h-5.93v-35.66zm32.04 10.65q2.73 0 4.98.89 2.24.89 3.84 2.52 1.59 1.63 2.46 3.98.86 2.36.86 5.26 0 2.93-.86 5.28-.87 2.35-2.46 4.01-1.6 1.65-3.84 2.54-2.25.89-4.98.89-2.76 0-5.02-.89-2.25-.89-3.85-2.54-1.6-1.66-2.47-4.01-.88-2.35-.88-5.28 0-2.9.88-5.26.87-2.35 2.47-3.98t3.85-2.52q2.26-.89 5.02-.89m0 20.81q3.07 0 4.55-2.06 1.47-2.07 1.47-6.05 0-3.99-1.47-6.07-1.48-2.09-4.55-2.09-3.12 0-4.62 2.1t-1.5 6.06 1.5 6.03q1.5 2.08 4.62 2.08m27.57-20.81q2.74 0 4.98.89 2.25.89 3.84 2.52 1.6 1.63 2.46 3.98.87 2.36.87 5.26 0 2.93-.87 5.28-.86 2.35-2.46 4.01-1.59 1.65-3.84 2.54-2.24.89-4.98.89-2.76 0-5.01-.89-2.26-.89-3.85-2.54-1.6-1.66-2.48-4.01-.87-2.35-.87-5.28 0-2.9.87-5.26.88-2.35 2.48-3.98 1.59-1.63 3.85-2.52 2.25-.89 5.01-.89m0 20.81q3.08 0 4.55-2.06 1.48-2.07 1.48-6.05 0-3.99-1.48-6.07-1.47-2.09-4.55-2.09-3.12 0-4.62 2.1t-1.5 6.06 1.5 6.03q1.5 2.08 4.62 2.08m16.76-31.46h5.92v35.66h-5.92zm30.93.96v34.7h-6.48v-34.7zm12.75 34.7h-5.93v-24.62h3.62q1.15 0 1.51 1.08l.39 1.82q.65-.72 1.35-1.32.71-.6 1.52-1.03.8-.43 1.72-.69.93-.25 2.03-.25 2.33 0 3.83 1.26t2.24 3.35q.58-1.22 1.44-2.1.87-.88 1.9-1.43t2.2-.81q1.16-.27 2.34-.27 2.04 0 3.62.63 1.58.62 2.66 1.82t1.65 2.93q.56 1.73.56 3.96v15.67h-5.93v-15.67q0-2.35-1.03-3.54t-3.02-1.19q-.91 0-1.69.31t-1.37.9-.93 1.48q-.33.89-.33 2.04v15.67h-5.95v-15.67q0-2.47-1-3.6t-2.92-1.13q-1.29 0-2.41.64-1.11.63-2.07 1.74zm47.28-6.36v-4.15q-2.57.12-4.32.44-1.76.33-2.81.83-1.06.5-1.51 1.18-.46.67-.46 1.46 0 1.56.92 2.23.93.67 2.42.67 1.82 0 3.15-.66t2.61-2m-12.53-12.94-1.06-1.89q4.25-3.89 10.23-3.89 2.16 0 3.86.71t2.88 1.97 1.79 3.01.61 3.84v15.55h-2.69q-.84 0-1.29-.25-.46-.25-.72-1.02l-.53-1.78q-.94.84-1.83 1.48-.88.63-1.84 1.07-.96.43-2.06.66-1.09.22-2.41.22-1.56 0-2.88-.42t-2.28-1.26-1.49-2.08q-.52-1.25-.52-2.91 0-.93.31-1.86.31-.92 1.02-1.76t1.83-1.59q1.13-.74 2.78-1.29 1.64-.55 3.82-.9 2.19-.35 5-.42v-1.44q0-2.47-1.06-3.66t-3.05-1.19q-1.44 0-2.39.34-.94.33-1.66.75t-1.31.76q-.59.33-1.31.33-.62 0-1.06-.32-.43-.32-.69-.76m32.88 6.39q1.1 0 1.92-.3.81-.3 1.35-.83t.82-1.27q.28-.75.28-1.63 0-1.83-1.1-2.9-1.09-1.06-3.27-1.06-2.19 0-3.28 1.06-1.09 1.07-1.09 2.9 0 .86.28 1.6.27.75.81 1.29t1.37.84 1.91.3m6.69 14.01q0-.72-.43-1.17-.43-.46-1.17-.71-.75-.25-1.74-.37-1-.12-2.12-.18-1.11-.06-2.3-.11t-2.32-.19q-.98.55-1.59 1.29-.61.75-.61 1.73 0 .65.32 1.21.32.57 1.03.98.71.4 1.84.63t2.76.23q1.65 0 2.85-.25t1.98-.7q.78-.44 1.14-1.05.36-.62.36-1.34m-1.17-24.88h7.08v2.2q0 1.06-1.27 1.3l-2.21.41q.5 1.27.5 2.78 0 1.83-.73 3.3-.73 1.48-2.03 2.51-1.29 1.03-3.06 1.6-1.76.56-3.8.56-.72 0-1.39-.07-.68-.07-1.32-.19-1.16.69-1.16 1.56 0 .74.69 1.09.68.35 1.81.49t2.57.18 2.95.16 2.95.42 2.57.94q1.13.65 1.81 1.77.69 1.11.69 2.87 0 1.63-.81 3.16-.8 1.54-2.33 2.74-1.52 1.2-3.74 1.93t-5.05.73q-2.79 0-4.85-.54t-3.43-1.44-2.04-2.07q-.67-1.18-.67-2.45 0-1.73 1.04-2.89 1.04-1.17 2.87-1.86-.99-.51-1.56-1.35-.58-.84-.58-2.2 0-.56.21-1.14.2-.59.6-1.17.39-.57.99-1.09t1.42-.92q-1.87-1.01-2.94-2.69t-1.07-3.94q0-1.82.73-3.3.73-1.47 2.04-2.52 1.31-1.04 3.1-1.59 1.79-.56 3.9-.56 1.58 0 2.97.33 1.4.32 2.55.95m15.5 8.64h11.19q0-1.16-.33-2.18-.32-1.02-.97-1.78-.65-.77-1.64-1.22-1-.44-2.32-.44-2.57 0-4.04 1.46-1.48 1.47-1.89 4.16m15.12 3.57h-15.24q.15 1.9.67 3.28.53 1.38 1.4 2.28.86.9 2.05 1.34 1.19.45 2.63.45t2.48-.34 1.82-.74q.78-.41 1.37-.75.59-.33 1.14-.33.75 0 1.11.55l1.7 2.16q-.98 1.15-2.21 1.93-1.22.78-2.55 1.25-1.34.47-2.72.66t-2.67.19q-2.57 0-4.78-.85t-3.84-2.52-2.57-4.13q-.93-2.46-.93-5.7 0-2.52.81-4.74.82-2.22 2.34-3.86 1.53-1.65 3.72-2.61 2.2-.96 4.96-.96 2.33 0 4.3.75 1.96.74 3.38 2.17t2.22 3.5q.8 2.08.8 4.74 0 1.35-.28 1.81-.29.47-1.11.47"/></svg>