<svg xmlns="http://www.w3.org/2000/svg" width="80" height="80" viewBox="0 0 80 80"><rect width="100%" height="100%" fill="#DDDDDD"/><path fill="#999999" d="M20.815 34.575h1.42v8.68h-.83q-.19 0-.32-.06-.13-.07-.25-.22l-4.53-5.78q.04.4.04.73v5.33h-1.42v-8.68h.84q.1 0 .18.01.07.01.13.04t.11.08q.06.05.12.13l4.55 5.81q-.02-.21-.03-.41-.01-.21-.01-.38zm5.84 2.43q.69 0 1.25.22t.96.63.61 1q.22.58.22 1.31t-.22 1.32q-.21.59-.61 1-.4.42-.96.64t-1.25.22-1.25-.22q-.57-.22-.96-.64-.4-.41-.62-1t-.22-1.32.22-1.31q.22-.59.62-1 .39-.41.96-.63.56-.22 1.25-.22m0 5.2q.77 0 1.14-.52.37-.51.37-1.51 0-.99-.37-1.52-.37-.52-1.14-.52-.78 0-1.15.53-.38.52-.38 1.51t.38 1.51q.37.52 1.15.52m8.94-7.63v8.68h-1.62v-8.68zm3.19 8.68h-1.48v-6.16h.9q.29 0 .38.27l.1.46q.16-.18.34-.33.17-.15.37-.26.21-.11.44-.17t.5-.06q.59 0 .96.31.38.32.56.84.15-.31.36-.53.22-.21.48-.35.25-.14.54-.21.3-.06.59-.06.51 0 .91.15.39.16.66.46t.41.73.14.99v3.92h-1.48v-3.92q0-.59-.26-.88-.25-.3-.75-.3-.23 0-.43.08-.19.08-.34.22-.14.15-.23.37-.08.22-.08.51v3.92h-1.49v-3.92q0-.62-.25-.9t-.73-.28q-.32 0-.6.16t-.52.43zm11.82-1.59v-1.04q-.64.03-1.08.11t-.7.21q-.27.13-.38.29-.11.17-.11.37 0 .39.23.56t.6.17q.46 0 .79-.17.33-.16.65-.5m-3.13-3.23-.27-.48q1.07-.97 2.56-.97.54 0 .97.18.42.17.72.49.29.31.44.75.16.44.16.96v3.89h-.68q-.21 0-.32-.06-.11-.07-.18-.26l-.13-.44q-.24.21-.46.37t-.46.26q-.24.11-.51.17-.28.06-.61.06-.39 0-.72-.11-.33-.1-.57-.31t-.37-.53q-.13-.31-.13-.72 0-.24.08-.47t.25-.44q.18-.21.46-.39.28-.19.69-.33.42-.14.96-.22.55-.09 1.25-.11v-.36q0-.62-.26-.91-.27-.3-.77-.3-.36 0-.59.08-.24.09-.42.19-.18.11-.33.19-.14.09-.32.09-.16 0-.27-.08-.11-.09-.17-.19m8.22 1.59q.27 0 .48-.07.2-.08.34-.21.13-.13.2-.32.07-.18.07-.41 0-.45-.27-.72-.28-.27-.82-.27-.55 0-.82.27t-.27.72q0 .22.06.41.07.18.21.32.13.13.34.21.21.07.48.07m1.67 3.51q0-.18-.11-.3-.1-.11-.29-.18-.19-.06-.44-.09-.24-.03-.52-.04-.28-.02-.58-.03t-.58-.05q-.24.14-.4.33-.15.18-.15.43 0 .16.08.3t.26.24q.18.11.46.16.28.06.69.06t.71-.06q.3-.07.5-.18.19-.11.28-.26t.09-.33m-.29-6.23h1.77v.56q0 .26-.32.32l-.55.1q.12.32.12.7 0 .45-.18.82t-.51.63q-.32.26-.76.4t-.95.14q-.18 0-.35-.02t-.33-.05q-.29.18-.29.39 0 .19.17.28.17.08.46.12.28.04.64.04.36.01.74.04.37.03.73.11.36.07.65.24.28.16.45.44t.17.71q0 .41-.2.8-.2.38-.58.68t-.94.48q-.55.19-1.26.19-.7 0-1.21-.14-.52-.13-.86-.36-.34-.22-.51-.52-.17-.29-.17-.61 0-.43.26-.72t.72-.47q-.25-.12-.39-.33-.15-.21-.15-.56 0-.13.05-.28.06-.15.15-.29.1-.15.25-.28.15-.12.36-.23-.47-.25-.74-.67-.26-.42-.26-.98 0-.46.18-.83t.51-.63.77-.4q.45-.13.98-.13.39 0 .74.08t.64.23m3.87 2.16h2.8q0-.28-.08-.54-.08-.25-.25-.45-.16-.19-.41-.3t-.57-.11q-.65 0-1.02.37-.36.36-.47 1.03m3.78.9h-3.81q.04.47.17.82.13.34.35.57.22.22.51.33.3.11.66.11t.62-.08.46-.19l.34-.18q.14-.09.28-.09.19 0 .28.14l.42.54q-.24.29-.55.49-.3.19-.64.31-.33.11-.67.16-.35.05-.67.05-.64 0-1.2-.21-.55-.22-.96-.63-.4-.42-.64-1.04-.23-.61-.23-1.42 0-.63.2-1.19.2-.55.59-.96.38-.41.93-.65t1.24-.24q.58 0 1.07.18.49.19.85.55.35.35.55.87t.2 1.19q0 .33-.07.45t-.28.12"/></svg>